<svg width="86" height="20" viewBox="0 0 86 20" fill="none" xmlns="http://www.w3.org/2000/svg">
<g clip-path="url(#clip0_4005_438)">
<path d="M74.7534 0.326904V19.7274H70.9932L60.4482 6.3487V19.673H55.925V0.326904H61.1839L70.3392 12.1798V0.326904H74.7534Z" fill="black"/>
<path d="M45.4695 19.673V0.326904H50.1016V19.673H45.4695Z" fill="black"/>
<path d="M23.7563 19.673V0.326904H39.9416V4.14162H28.3885V7.62936H35.2822V11.5258H28.3885V15.6675H41.0043V19.673H23.7563Z" fill="black"/>
<path d="M9.91826 20C7.01181 20 4.63215 19.0554 2.77929 17.1662C0.92643 15.2589 0 12.8701 0 10C0 7.07539 0.935513 4.67757 2.80654 2.80654C4.67757 0.935514 7.04814 0 9.91826 0C11.7166 0 13.3697 0.390554 14.8774 1.17166C16.4033 1.93461 17.5568 3.06994 18.3379 4.57766C18.7193 5.3406 18.9646 5.99455 19.0736 6.53951H14.3597C14.2688 6.37602 14.1054 6.14896 13.8692 5.85831C13.3061 5.24069 12.5795 4.75931 11.6894 4.41417C11.1626 4.25068 10.5722 4.16894 9.91826 4.16894C8.31971 4.16894 7.05722 4.74115 6.13079 5.88556C5.20436 7.01181 4.74114 8.38329 4.74114 10C4.74114 11.6349 5.21344 13.0154 6.15804 14.1417C7.10263 15.2679 8.35604 15.8311 9.91826 15.8311C11.6803 15.8311 13.0154 15.2679 13.9237 14.1417C14.1962 13.7602 14.3506 13.5332 14.3869 13.4605H19.0736C18.8738 14.7139 18.3015 15.8583 17.3569 16.8937C16.4124 17.911 15.3134 18.6921 14.0599 19.2371C12.97 19.7457 11.5895 20 9.91826 20Z" fill="black"/>
<circle cx="81.5" cy="17.5" r="2.5" fill="black"/>
</g>
<defs>
<clipPath id="clip0_4005_438">
<rect width="86" height="20" fill="white"/>
</clipPath>
</defs>
</svg>
